<svg width="45" height="45" viewBox="0 0 45 45" fill="none" xmlns="http://www.w3.org/2000/svg">
<mask id="mask0_481_56" style="mask-type:alpha" maskUnits="userSpaceOnUse" x="0" y="0" width="45" height="45">
<path d="M22.499 45C34.9058 45 44.999 34.9058 44.999 22.499C45 10.0932 34.9058 0 22.499 0C10.0932 0 0 10.0932 0 22.5C0.000985761 34.9068 10.0932 45 22.499 45ZM22.499 1.2322C34.2256 1.2322 43.7668 10.7724 43.7668 22.5C43.7668 34.2276 34.2256 43.7688 22.499 43.7688C10.7724 43.7688 1.23319 34.2276 1.23319 22.5C1.23319 10.7724 10.7724 1.2322 22.499 1.2322Z" fill="#010002"/>
<path d="M19.6875 22.5425C19.6905 22.5839 19.7082 22.6204 19.7191 22.6588C19.7279 22.6914 19.7309 22.7239 19.7447 22.7554C19.7772 22.8254 19.8216 22.8885 19.8768 22.9417C19.8788 22.9437 19.8798 22.9477 19.8827 22.9496C19.8906 22.9565 19.9014 22.9595 19.9083 22.9664C19.9586 23.0088 20.0128 23.0472 20.0749 23.0719C20.1469 23.1005 20.2238 23.1152 20.3007 23.1152C20.3155 23.1152 20.3302 23.1152 20.344 23.1133L24.6607 22.8087C24.6627 22.8087 24.6627 22.8077 24.6637 22.8077L38.7502 21.8121C39.0587 21.7904 39.3042 21.542 39.3209 21.2344C39.3397 20.9249 39.1248 20.6498 38.8202 20.5927L24.0968 17.8099L20.898 5.67811C20.8202 5.38337 20.5412 5.18326 20.2218 5.22466C19.9152 5.26507 19.6846 5.52827 19.6846 5.83583V22.5001C19.6846 22.508 19.6885 22.5159 19.6895 22.5228C19.6905 22.5297 19.6875 22.5356 19.6875 22.5425ZM33.915 20.9199L25.0826 21.5439L24.4458 19.1298L33.915 20.9199ZM20.9178 10.5862L23.8317 21.6327L20.9178 21.8377V10.5862Z" fill="#010002"/>
</mask>
<g mask="url(#mask0_481_56)">
<rect y="-1" width="45" height="48.2143" fill="#1A4577"/>
</g>
</svg>
