<svg width="45" height="45" viewBox="0 0 45 45" fill="none" xmlns="http://www.w3.org/2000/svg">
<mask id="mask0_481_29" style="mask-type:alpha" maskUnits="userSpaceOnUse" x="0" y="0" width="45" height="45">
<path d="M16.0011 14.2866H10.3002C9.80512 14.2866 9.40381 14.7167 9.40381 15.247C9.40381 15.7774 9.80512 16.2075 10.3002 16.2075H16.0011C16.4961 16.2075 16.8975 15.7774 16.8975 15.247C16.8975 14.7167 16.4961 14.2866 16.0011 14.2866Z" fill="black"/>
<path d="M44.9983 18.1977C44.9984 17.8952 44.8671 17.6088 44.639 17.4268L41.297 14.7604V8.77236C41.297 8.24201 40.8957 7.81194 40.4006 7.81194H32.5883L23.0354 0.190126C22.7177 -0.0633754 22.2824 -0.0633754 21.9647 0.190126L12.4117 7.81203H4.59949C4.1044 7.81203 3.7031 8.2421 3.7031 8.77246V14.7604L0.360967 17.4269C0.133154 17.6087 0.0018457 17.8947 0.00166992 18.1968C0.00149414 18.1968 0 18.1972 0 18.1972V43.8064C0 44.3367 0.401309 44.7668 0.896397 44.7668H44.1036C44.5987 44.7668 45 44.3367 45 43.8064V18.1972C45 18.1972 44.9985 18.1976 44.9983 18.1977ZM41.2969 17.1554L42.4764 18.0965L41.2969 18.8279V17.1554ZM22.5 2.15787L29.5865 7.81203H15.4135L22.5 2.15787ZM5.49589 9.73288H39.504V19.9395L38.3761 20.6389H6.62379L5.49589 19.9395V9.73288V9.73288ZM14.5041 25.5252L9.72158 22.5598H35.2782L30.4958 25.5252H14.5041ZM27.3979 27.4462L22.5 30.4832L17.6021 27.4462H27.3979V27.4462ZM3.7031 17.1553V18.8278L2.5236 18.0964L3.7031 17.1553ZM1.79279 19.8628L14.519 27.7539L1.79279 41.3891V19.8628ZM43.2072 41.3891L34.4413 31.9971C34.0913 31.6222 33.5238 31.6221 33.1735 31.9971C32.8235 32.3721 32.8235 32.9803 33.1735 33.3554L42.0312 42.8458H2.96877L16.1252 28.7497L22.0511 32.424C22.0858 32.4455 22.1215 32.4643 22.158 32.4805C22.2674 32.5289 22.3837 32.5531 22.5001 32.5531C22.6551 32.5531 22.8102 32.5101 22.9491 32.4239L43.2073 19.8628V41.3891H43.2072Z" fill="black"/>
<path d="M32.3266 29.7314L32.1429 29.5346C31.7928 29.1596 31.2252 29.1597 30.8752 29.5348C30.5251 29.9099 30.5252 30.518 30.8753 30.8932L31.059 31.09C31.234 31.2775 31.4633 31.3712 31.6927 31.3712C31.9222 31.3712 32.1516 31.2774 32.3267 31.0898C32.6768 30.7146 32.6766 30.1065 32.3266 29.7314Z" fill="black"/>
</mask>
<g mask="url(#mask0_481_29)">
<rect width="45" height="48.2143" fill="#1A4577"/>
</g>
</svg>
