<svg width="45" height="45" viewBox="0 0 45 45" fill="none" xmlns="http://www.w3.org/2000/svg">
<g clip-path="url(#clip0_481_24)">
<mask id="mask0_481_24" style="mask-type:alpha" maskUnits="userSpaceOnUse" x="0" y="0" width="45" height="45">
<path d="M45 29.7493V15.2403C45 14.9224 44.7909 14.6422 44.4862 14.5519L37.7733 12.5602C38.2929 11.2892 38.6168 10.0276 38.6168 8.85638C38.6168 3.97302 34.6439 0 29.7604 0C24.877 0 20.904 3.97293 20.904 8.85638C20.904 10.0276 21.2279 11.2892 21.7475 12.5602L15.2389 14.4912L0.922309 10.2432C0.70516 10.179 0.470202 10.2207 0.288574 10.3562C0.106947 10.4917 0 10.7051 0 10.9317V25.4589C0 25.4606 0 25.4624 0 25.4642V39.9734C0 40.2913 0.209011 40.5714 0.513862 40.6618L15.0239 44.9672C15.0281 44.9684 15.0347 44.9703 15.0347 44.9703C15.037 44.971 15.0394 44.9712 15.0417 44.9719C15.0684 44.9795 15.0958 44.9854 15.1237 44.9899C15.1312 44.9911 15.1387 44.9923 15.1462 44.9933C15.1763 44.9972 15.2067 44.9998 15.2378 44.9999C15.2711 44.9999 15.3016 44.9972 15.3318 44.9933C15.3393 44.9923 15.3466 44.9911 15.3541 44.9899C15.3821 44.9854 15.4095 44.9794 15.4363 44.9719C15.4386 44.9712 15.441 44.971 15.4433 44.9703L15.4499 44.9683C15.4541 44.9671 29.4695 40.8087 29.4695 40.8087C29.5586 40.8482 29.6568 40.8706 29.7605 40.8706C29.8642 40.8706 29.9625 40.8482 30.0515 40.8087L44.0777 44.9702C44.1448 44.9901 44.2136 44.9999 44.282 44.9999C44.435 44.9999 44.586 44.951 44.7115 44.8572C44.8931 44.7217 45.0001 44.5084 45.0001 44.2818V29.7551C45 29.7531 45 29.7512 45 29.7493V29.7493ZM43.5638 15.7762V28.799L30.4785 24.9166V22.8742C31.4149 21.9099 35.0922 17.9917 37.1688 13.8789L43.5638 15.7762ZM29.7604 1.43617C33.8519 1.43617 37.1806 4.76483 37.1806 8.85638C37.1806 10.0226 36.7905 11.3216 36.1837 12.6369C36.1537 12.6849 36.129 12.7371 36.1105 12.7932C34.3802 16.4458 31.0332 20.1895 29.7602 21.5439C28.488 20.1909 25.1441 16.4524 23.4131 12.8011C23.3937 12.7396 23.3666 12.6826 23.3334 12.6306C22.7288 11.3178 22.3402 10.0212 22.3402 8.85629C22.3402 4.76483 25.669 1.43617 29.7604 1.43617V1.43617ZM29.0423 22.8741V24.9165L15.957 28.7989V15.7762L22.3521 13.8789C24.4287 17.9917 28.1059 21.9099 29.0423 22.8741ZM1.43617 26.4146L6.39747 27.8867C6.46564 27.9069 6.53438 27.9166 6.60198 27.9166C6.91171 27.9166 7.19751 27.7146 7.2901 27.4025C7.40298 27.0223 7.18621 26.6227 6.80591 26.5099L1.43617 24.9166V11.8938L14.5208 15.7762V28.799L9.55963 27.327C9.17952 27.214 8.77979 27.4309 8.667 27.8111C8.55412 28.1914 8.77088 28.591 9.15118 28.7038L14.5209 30.2971V43.3199L1.43617 39.4374V26.4146V26.4146ZM30.4785 39.4374V34.2388C30.4785 33.8422 30.1571 33.5207 29.7604 33.5207C29.3637 33.5207 29.0423 33.8422 29.0423 34.2388V39.4374L15.957 43.3198V30.2971L29.0423 26.4146V31.3664C29.0423 31.763 29.3637 32.0845 29.7604 32.0845C30.1571 32.0845 30.4785 31.763 30.4785 31.3664V26.4146L43.5638 30.2971V43.3199L30.4785 39.4374V39.4374Z" fill="black"/>
<path d="M29.7605 13.8828C32.5321 13.8828 34.7871 11.6279 34.7871 8.85619C34.7871 6.08457 32.5321 3.82959 29.7605 3.82959C26.9889 3.82959 24.7339 6.08447 24.7339 8.85619C24.7339 11.6278 26.9889 13.8828 29.7605 13.8828ZM29.7605 5.26576C31.7403 5.26576 33.3509 6.87638 33.3509 8.85619C33.3509 10.836 31.7403 12.4466 29.7605 12.4466C27.7807 12.4466 26.1701 10.836 26.1701 8.85619C26.1701 6.87638 27.7807 5.26576 29.7605 5.26576Z" fill="black"/>
</mask>
<g mask="url(#mask0_481_24)">
<rect width="45" height="45" fill="#1A4577"/>
</g>
</g>
<defs>
<clipPath id="clip0_481_24">
<rect width="45" height="45" fill="white"/>
</clipPath>
</defs>
</svg>
