<svg width="45" height="45" viewBox="0 0 45 45" fill="none" xmlns="http://www.w3.org/2000/svg">
<g clip-path="url(#clip0_481_2)">
<mask id="mask0_481_2" style="mask-type:alpha" maskUnits="userSpaceOnUse" x="0" y="0" width="46" height="45">
<path d="M33.055 28.7903C32.0987 28.2442 31.1071 28.0717 30.2641 28.3057C29.631 28.4812 29.115 28.8818 28.7677 29.4653C28.002 30.3811 27.0524 31.4499 26.8237 31.6156C25.0453 32.8187 23.6345 32.6762 22.1022 31.1439L13.4872 22.5289C11.9534 20.9951 11.8124 19.5828 13.014 17.8097C13.182 17.5772 14.2508 16.6284 15.1658 15.8634C15.7493 15.5153 16.1499 15.0001 16.3254 14.3663C16.5586 13.524 16.3861 12.5332 15.8356 11.5679C15.7058 11.3459 12.6187 6.11512 9.77155 4.6098C8.32473 3.84551 6.58014 4.10727 5.42433 5.26383L3.52149 7.16667C-2.02954 12.7185 -1.00199 19.6143 6.49313 27.1087L17.5224 38.1387C20.9269 41.5439 24.2255 43.6335 27.3239 44.3498C28.146 44.5395 28.9515 44.6348 29.742 44.6348C32.5299 44.6348 35.1191 43.455 37.4644 41.1096L39.3673 39.2068C40.5231 38.051 40.7863 36.3041 40.0213 34.8596C38.5152 32.0132 33.2852 28.9245 33.055 28.7903ZM38.3067 38.1455L36.4039 40.0483C31.4776 44.9746 25.4811 43.9763 18.583 37.0774L7.55369 26.0474C0.655592 19.15 -0.344207 13.1542 4.58204 8.22648L6.48488 6.32363C6.9094 5.89911 7.46968 5.6771 8.03746 5.6771C8.38773 5.6771 8.74175 5.7611 9.06951 5.93511C11.5401 7.24243 14.5118 12.2759 14.5365 12.3187C14.8733 12.909 15.0016 13.5247 14.8793 13.9658C14.8043 14.2358 14.637 14.4413 14.3663 14.5928L14.2538 14.6708C13.614 15.2048 12.0914 16.4964 11.7726 16.9667C11.3136 17.6447 11.0091 18.3107 10.8494 18.9655C10.3161 17.902 9.88555 16.6704 9.7438 15.3046C9.70029 14.8928 9.33353 14.5995 8.91951 14.6355C8.50773 14.679 8.20847 15.0473 8.25047 15.4598C8.792 20.6748 12.8482 24.0695 13.02 24.2113C13.0387 24.227 13.0612 24.2323 13.0807 24.2458L21.0401 32.2052C21.0739 32.2389 21.1084 32.2682 21.1421 32.3004C21.1684 32.3394 21.1856 32.3822 21.2201 32.4167C21.3619 32.5569 24.7483 35.8421 29.9198 36.3791C29.9461 36.3814 29.9723 36.3829 29.9978 36.3829C30.3773 36.3829 30.7028 36.0956 30.7433 35.7108C30.7861 35.2983 30.4861 34.9301 30.0743 34.8866C28.488 34.7223 27.0832 34.2573 25.9124 33.718C26.4869 33.5455 27.0712 33.259 27.6629 32.8577C28.1332 32.5382 29.4248 31.0171 29.9581 30.3773L30.0361 30.2641C30.1876 29.9948 30.3931 29.8268 30.6631 29.7511C31.1019 29.6318 31.7191 29.7563 32.3019 30.0886C33.7112 30.9151 37.6069 33.5087 38.693 35.5608C39.1498 36.4204 38.9938 37.4584 38.3067 38.1455Z" fill="black"/>
<path d="M20.5226 0.365234C20.1078 0.365234 19.7726 0.700501 19.7726 1.11527C19.7726 1.53004 20.1078 1.86531 20.5226 1.86531C33.1923 1.86531 43.5 12.1731 43.5 24.8427C43.5 25.2575 43.8353 25.5927 44.2501 25.5927C44.6648 25.5927 45.0001 25.2575 45.0001 24.8427C45.0001 11.3458 34.0195 0.365234 20.5226 0.365234Z" fill="black"/>
<path d="M20.5226 7.13826C30.2851 7.13826 38.2265 15.0804 38.2265 24.8421C38.2265 25.2569 38.5618 25.5922 38.9765 25.5922C39.3913 25.5922 39.7266 25.2569 39.7266 24.8421C39.7266 14.2531 31.1116 5.63818 20.5226 5.63818C20.1078 5.63818 19.7726 5.97345 19.7726 6.38822C19.7726 6.80299 20.1078 7.13826 20.5226 7.13826Z" fill="black"/>
<path d="M20.5226 12.4107C27.378 12.4107 32.9545 17.988 32.9545 24.8426C32.9545 25.2574 33.2898 25.5926 33.7045 25.5926C34.1193 25.5926 34.4546 25.2574 34.4546 24.8426C34.4546 17.1607 28.2045 10.9106 20.5226 10.9106C20.1078 10.9106 19.7726 11.2459 19.7726 11.6607C19.7726 12.0755 20.1078 12.4107 20.5226 12.4107Z" fill="black"/>
</mask>
<g mask="url(#mask0_481_2)">
<rect width="45" height="45" fill="#1A4577"/>
</g>
</g>
<defs>
<clipPath id="clip0_481_2">
<rect width="45" height="45" fill="white"/>
</clipPath>
</defs>
</svg>
