<svg width="30" height="30" viewBox="0 0 30 30" fill="none" xmlns="http://www.w3.org/2000/svg">
<mask id="mask0_481_29" style="mask-type:alpha" maskUnits="userSpaceOnUse" x="0" y="0" width="30" height="30">
<path d="M10.6675 9.52441H6.86688C6.53683 9.52441 6.26929 9.81113 6.26929 10.1647C6.26929 10.5183 6.53683 10.805 6.86688 10.805H10.6675C10.9975 10.805 11.265 10.5183 11.265 10.1647C11.265 9.81113 10.9975 9.52441 10.6675 9.52441Z" fill="black"/>
<path d="M29.9989 12.1318C29.9989 11.9301 29.9114 11.7392 29.7594 11.6179L27.5313 9.84023V5.84824C27.5313 5.49467 27.2638 5.20796 26.9337 5.20796H21.7256L15.357 0.126751C15.1451 -0.0422503 14.8549 -0.0422503 14.6431 0.126751L8.27449 5.20802H3.06633C2.73627 5.20802 2.46873 5.49473 2.46873 5.8483V9.8403L0.240645 11.6179C0.0887695 11.7391 0.00123047 11.9298 0.00111328 12.1312C0.000996094 12.1312 0 12.1315 0 12.1315V29.2042C0 29.5578 0.267539 29.8445 0.597598 29.8445H29.4024C29.7325 29.8445 30 29.5578 30 29.2042V12.1315C30 12.1315 29.999 12.1317 29.9989 12.1318ZM27.5313 11.437L28.3176 12.0643L27.5313 12.5519V11.437ZM15 1.43858L19.7244 5.20802H10.2756L15 1.43858ZM3.66393 6.48859H26.336V13.293L25.5841 13.7593H4.41586L3.66393 13.293V6.48859V6.48859ZM9.66943 17.0168L6.48105 15.0398H23.5188L20.3305 17.0168H9.66943ZM18.2653 18.2974L15 20.3221L11.7347 18.2974H18.2653V18.2974ZM2.46873 11.4369V12.5518L1.6824 12.0642L2.46873 11.4369ZM1.1952 13.2419L9.67934 18.5026L1.1952 27.5928V13.2419ZM28.8048 27.5928L22.9609 21.3314C22.7275 21.0814 22.3492 21.0814 22.1157 21.3314C21.8823 21.5814 21.8823 21.9868 22.1157 22.237L28.0208 28.5639H1.97918L10.7501 19.1664L14.7007 21.616C14.7238 21.6303 14.7477 21.6429 14.772 21.6537C14.845 21.6859 14.9225 21.7021 15.0001 21.7021C15.1034 21.7021 15.2068 21.6734 15.2994 21.6159L28.8049 13.2419V27.5928H28.8048Z" fill="black"/>
<path d="M21.5511 19.8211L21.4286 19.6899C21.1952 19.4399 20.8168 19.44 20.5835 19.69C20.3501 19.9401 20.3501 20.3455 20.5835 20.5956L20.706 20.7268C20.8227 20.8518 20.9756 20.9143 21.1285 20.9143C21.2815 20.9143 21.4344 20.8517 21.5511 20.7267C21.7845 20.4766 21.7844 20.0711 21.5511 19.8211Z" fill="black"/>
</mask>
<g mask="url(#mask0_481_29)">
<rect width="30" height="32.1429" fill="white"/>
</g>
</svg>
