<svg width="30" height="30" viewBox="0 0 30 30" fill="none" xmlns="http://www.w3.org/2000/svg">
<g clip-path="url(#clip0_481_24)">
<mask id="mask0_481_24" style="mask-type:alpha" maskUnits="userSpaceOnUse" x="0" y="0" width="30" height="30">
<path d="M30 19.8329V10.1602C30 9.94825 29.8606 9.76149 29.6575 9.70123L25.1822 8.37345C25.5286 7.52611 25.7445 6.68509 25.7445 5.90426C25.7445 2.64868 23.0959 0 19.8403 0C16.5846 0 13.936 2.64862 13.936 5.90426C13.936 6.68509 14.152 7.52611 14.4984 8.37345L10.1593 9.66083L0.614872 6.82883C0.470106 6.786 0.313468 6.81383 0.192383 6.90415C0.0712979 6.99447 0 7.13674 0 7.28783V16.9726C0 16.9737 0 16.975 0 16.9761V26.6489C0 26.8609 0.13934 27.0476 0.342574 27.1079L10.0159 29.9781C10.0187 29.9789 10.0231 29.9802 10.0231 29.9802C10.0247 29.9807 10.0263 29.9808 10.0278 29.9812C10.0456 29.9863 10.0639 29.9902 10.0825 29.9932C10.0875 29.9941 10.0924 29.9949 10.0975 29.9955C10.1175 29.9981 10.1378 29.9999 10.1585 29.9999C10.1807 29.9999 10.2011 29.9981 10.2212 29.9955C10.2262 29.9949 10.2311 29.9941 10.2361 29.9932C10.2547 29.9902 10.273 29.9863 10.2909 29.9812C10.2924 29.9808 10.294 29.9807 10.2956 29.9802L10.3 29.9789C10.3028 29.978 19.6464 27.2058 19.6464 27.2058C19.7057 27.2321 19.7712 27.2471 19.8403 27.2471C19.9095 27.2471 19.975 27.2321 20.0343 27.2058L29.3851 29.9801C29.4299 29.9934 29.4757 29.9999 29.5213 29.9999C29.6233 29.9999 29.724 29.9673 29.8077 29.9048C29.9287 29.8144 30.0001 29.6722 30.0001 29.5212V19.8367C30 19.8354 30 19.8341 30 19.8329V19.8329ZM29.0426 10.5175V19.1994L20.319 16.6111V15.2494C20.9433 14.6066 23.3948 11.9944 24.7792 9.25257L29.0426 10.5175ZM19.8403 0.957447C22.5679 0.957447 24.7871 3.17655 24.7871 5.90426C24.7871 6.68177 24.527 7.54774 24.1225 8.42457C24.1024 8.45662 24.086 8.4914 24.0737 8.52881C22.9201 10.9639 20.6888 13.4597 19.8401 14.3626C18.992 13.4606 16.7627 10.9683 15.6087 8.53404C15.5958 8.49306 15.5777 8.45508 15.5556 8.42043C15.1526 7.54519 14.8935 6.68081 14.8935 5.90419C14.8935 3.17655 17.1126 0.957447 19.8403 0.957447V0.957447ZM19.3616 15.2494V16.611L10.638 19.1993V10.5175L14.9014 9.25257C16.2858 11.9944 18.7373 14.6066 19.3616 15.2494ZM0.957447 17.6097L4.26498 18.5911C4.31043 18.6046 4.35626 18.611 4.40132 18.611C4.60781 18.611 4.79834 18.4764 4.86006 18.2683C4.93532 18.0149 4.79081 17.7484 4.53728 17.6733L0.957447 16.6111V7.92919L9.68055 10.5175V19.1994L6.37309 18.218C6.11968 18.1427 5.85319 18.2872 5.778 18.5408C5.70274 18.7942 5.84726 19.0607 6.10079 19.1359L9.68062 20.198V28.8799L0.957447 26.2916V17.6097V17.6097ZM20.319 26.2916V22.8259C20.319 22.5615 20.1047 22.3471 19.8403 22.3471C19.5758 22.3471 19.3616 22.5615 19.3616 22.8259V26.2916L10.638 28.8799V20.198L19.3616 17.6097V20.911C19.3616 21.1753 19.5758 21.3897 19.8403 21.3897C20.1047 21.3897 20.319 21.1753 20.319 20.911V17.6097L29.0426 20.198V28.8799L20.319 26.2916V26.2916Z" fill="black"/>
<path d="M19.8403 9.25535C21.6881 9.25535 23.1914 7.75209 23.1914 5.90429C23.1914 4.05654 21.6881 2.55322 19.8403 2.55322C17.9926 2.55322 16.4893 4.05648 16.4893 5.90429C16.4893 7.75203 17.9926 9.25535 19.8403 9.25535ZM19.8403 3.51067C21.1602 3.51067 22.2339 4.58441 22.2339 5.90429C22.2339 7.22416 21.1602 8.2979 19.8403 8.2979C18.5204 8.2979 17.4467 7.22416 17.4467 5.90429C17.4467 4.58441 18.5204 3.51067 19.8403 3.51067Z" fill="black"/>
</mask>
<g mask="url(#mask0_481_24)">
<rect width="30" height="30" fill="white"/>
</g>
</g>
<defs>
<clipPath id="clip0_481_24">
<rect width="30" height="30" fill="white"/>
</clipPath>
</defs>
</svg>
