<svg width="30" height="30" viewBox="0 0 30 30" fill="none" xmlns="http://www.w3.org/2000/svg">
<g clip-path="url(#clip0_481_2)">
<mask id="mask0_481_2" style="mask-type:alpha" maskUnits="userSpaceOnUse" x="0" y="0" width="30" height="30">
<path d="M22.0366 19.1938C21.399 18.8298 20.738 18.7148 20.176 18.8708C19.7539 18.9878 19.4099 19.2548 19.1784 19.6438C18.6679 20.2544 18.0349 20.9669 17.8824 21.0774C16.6968 21.8795 15.7562 21.7845 14.7347 20.7629L8.99141 15.0196C7.96886 13.9971 7.87485 13.0555 8.67589 11.8735C8.7879 11.7185 9.50043 11.0859 10.1105 10.5759C10.4995 10.3439 10.7665 10.0004 10.8835 9.57785C11.039 9.01632 10.924 8.35579 10.557 7.71225C10.4705 7.56425 8.41238 4.07707 6.51428 3.07352C5.54974 2.564 4.38668 2.73851 3.61614 3.50954L2.34758 4.77811C-1.35311 8.47929 -0.668076 13.0765 4.32867 18.0728L11.6815 25.4261C13.9512 27.6963 16.1503 29.0893 18.2159 29.5668C18.7639 29.6934 19.3009 29.7569 19.8279 29.7569C21.6865 29.7569 23.4126 28.9703 24.9762 27.4067L26.2448 26.1382C27.0153 25.3676 27.1908 24.2031 26.6808 23.24C25.6767 21.3424 22.1901 19.2833 22.0366 19.1938ZM25.5377 25.4306L24.2692 26.6992C20.985 29.9834 16.9873 29.3178 12.3886 24.7186L5.03571 17.3652C0.43698 12.767 -0.229553 8.76981 3.05461 5.48464L4.32317 4.21608C4.60619 3.93307 4.97971 3.78506 5.35823 3.78506C5.59174 3.78506 5.82775 3.84106 6.04626 3.95707C7.69334 4.82861 9.67444 8.18428 9.69094 8.21278C9.91545 8.6063 10.001 9.01682 9.91945 9.31083C9.86945 9.49084 9.75795 9.62785 9.57744 9.72885L9.50243 9.78086C9.07591 10.1369 8.06086 10.9979 7.84835 11.3114C7.54233 11.7635 7.33932 12.2075 7.23282 12.644C6.8773 11.935 6.59029 11.1139 6.49578 10.2034C6.46678 9.92887 6.22227 9.73336 5.94626 9.75736C5.67174 9.78636 5.47223 10.0319 5.50023 10.3069C5.86125 13.7836 8.56539 16.0467 8.67989 16.1412C8.69239 16.1517 8.70739 16.1552 8.72039 16.1642L14.0267 21.4704C14.0492 21.4929 14.0722 21.5124 14.0947 21.5339C14.1122 21.5599 14.1237 21.5884 14.1467 21.6114C14.2412 21.705 16.4988 23.8951 19.9465 24.2531C19.964 24.2546 19.9815 24.2556 19.9985 24.2556C20.2515 24.2556 20.4685 24.0641 20.4955 23.8076C20.524 23.5325 20.324 23.287 20.0495 23.258C18.9919 23.1485 18.0554 22.8385 17.2748 22.479C17.6578 22.364 18.0474 22.173 18.4419 21.9055C18.7554 21.6925 19.6164 20.6784 19.972 20.2519L20.024 20.1764C20.125 19.9969 20.262 19.8849 20.442 19.8344C20.7345 19.7549 21.146 19.8379 21.5345 20.0594C22.4741 20.6104 25.0712 22.3395 25.7952 23.7076C26.0998 24.2806 25.9958 24.9726 25.5377 25.4306Z" fill="black"/>
<path d="M13.6817 0.243652C13.4052 0.243652 13.1816 0.467164 13.1816 0.743677C13.1816 1.02019 13.4052 1.2437 13.6817 1.2437C22.1281 1.2437 28.9999 8.11555 28.9999 16.562C28.9999 16.8385 29.2234 17.062 29.5 17.062C29.7765 17.062 30 16.8385 30 16.562C30 7.56402 22.6796 0.243652 13.6817 0.243652Z" fill="black"/>
<path d="M13.6817 4.75884C20.19 4.75884 25.4843 10.0536 25.4843 16.5614C25.4843 16.8379 25.7078 17.0615 25.9843 17.0615C26.2608 17.0615 26.4843 16.8379 26.4843 16.5614C26.4843 9.50208 20.741 3.75879 13.6817 3.75879C13.4052 3.75879 13.1816 3.9823 13.1816 4.25881C13.1816 4.53533 13.4052 4.75884 13.6817 4.75884Z" fill="black"/>
<path d="M13.6817 8.27398C18.2519 8.27398 21.9696 11.9922 21.9696 16.5619C21.9696 16.8384 22.1931 17.0619 22.4696 17.0619C22.7461 17.0619 22.9696 16.8384 22.9696 16.5619C22.9696 11.4406 18.8029 7.27393 13.6817 7.27393C13.4052 7.27393 13.1816 7.49744 13.1816 7.77395C13.1816 8.05046 13.4052 8.27398 13.6817 8.27398Z" fill="black"/>
</mask>
<g mask="url(#mask0_481_2)">
<rect width="30" height="30" fill="white"/>
</g>
</g>
<defs>
<clipPath id="clip0_481_2">
<rect width="30" height="30" fill="white"/>
</clipPath>
</defs>
</svg>
